<svg width="20" height="20" viewBox="0 0 20 20" fill="none" xmlns="http://www.w3.org/2000/svg">
    <path d="M10 0.666645L10.2987 0.0706444C10.206 0.024189 10.1037 0 10 0C9.89632 0 9.79405 0.024189 9.70134 0.0706444L10 0.666645ZM0 20H20V18.6667H0V20ZM9.70134 0.0706444L1.70134 4.07065L2.29867 5.26265L10.2987 1.26265L9.70134 0.0706444V0.0706444ZM0 7.99999H20V6.66665H0V7.99999ZM18.2987 4.07065L10.2987 0.0706444L9.70134 1.26265L17.7014 5.26265L18.2987 4.07065ZM6.66667 10.6667V16H8.00001V10.6667H6.66667ZM12 10.6667V16H13.3333V10.6667H12ZM1.33333 7.33332V19.3333H2.66667V7.33332H1.33333ZM17.3334 7.33332V19.3333H18.6667V7.33332H17.3334Z" fill="white"/>
</svg>
